<svg width="355" height="26" viewBox="0 0 355 26" fill="none" xmlns="http://www.w3.org/2000/svg">
<path d="M15.9019 2.31665C16.1781 2.31665 16.4019 2.09279 16.4019 1.81665C16.4019 1.54051 16.1781 1.31665 15.9019 1.31665C15.6258 1.31665 15.4019 1.54051 15.4019 1.81665L14.9019 1.81665C14.9019 1.26437 15.3497 0.81665 15.9019 0.81665C16.4542 0.81665 16.9019 1.26437 16.9019 1.81665C16.9019 2.36894 16.4542 2.81665 15.9019 2.81665C15.3497 2.81665 14.9019 2.36894 14.9019 1.81665L15.4019 1.81665C15.4019 2.09279 15.6258 2.31665 15.9019 2.31665Z" fill="white"/>
<path d="M10.9731 7.90189C8.60278 7.90189 7.47731 6.81052 7.47731 4.82389C7.47731 2.84578 8.60278 1.76294 10.9731 1.76294C13.3349 1.76294 14.4689 2.85431 14.4689 4.82389C14.4689 6.80199 13.3349 7.90189 10.9731 7.90189ZM10.9731 6.61441C12.3203 6.61441 12.9342 5.94083 12.9342 4.82389C12.9342 3.71547 12.3203 3.05041 10.9731 3.05041C9.62594 3.05041 9.01205 3.70694 9.01205 4.82389C9.01205 5.94936 9.62594 6.61441 10.9731 6.61441Z" fill="white"/>
<path d="M3.42332 1.76294C5.98121 1.76294 7.00437 2.76052 7.00437 4.68747C7.00437 7.1601 5.53785 7.90189 3.78142 7.90189C2.29785 7.90189 1.30879 7.69726 0.584056 7.54378V6.32452C1.42816 6.48652 2.29785 6.68262 3.40627 6.68262C4.617 6.68262 5.28206 6.43536 5.43553 5.22462C4.97511 5.58273 4.18216 5.87262 3.05669 5.87262C1.31732 5.87262 0.183319 5.29283 0.183319 3.85189C0.183319 2.4621 1.31732 1.76294 3.42332 1.76294ZM3.59385 4.96883C4.9069 4.96883 5.46964 4.61073 5.46964 3.97978C5.46964 3.35736 4.94953 2.9822 3.59385 2.9822C2.14437 2.9822 1.71806 3.35736 1.71806 3.97978C1.71806 4.6022 2.13585 4.96883 3.59385 4.96883Z" fill="white"/>
<path d="M353.719 2.31665C353.995 2.31665 354.219 2.09279 354.219 1.81665C354.219 1.54051 353.995 1.31665 353.719 1.31665C353.442 1.31665 353.219 1.54051 353.219 1.81665L352.719 1.81665C352.719 1.26437 353.166 0.81665 353.719 0.81665C354.271 0.81665 354.719 1.26437 354.719 1.81665C354.719 2.36894 354.271 2.81665 353.719 2.81665C353.166 2.81665 352.719 2.36894 352.719 1.81665L353.219 1.81665C353.219 2.09279 353.442 2.31665 353.719 2.31665Z" fill="white"/>
<path d="M348.79 7.90189C346.419 7.90189 345.294 6.81052 345.294 4.82389C345.294 2.84578 346.419 1.76294 348.79 1.76294C351.152 1.76294 352.286 2.85431 352.286 4.82389C352.286 6.80199 351.152 7.90189 348.79 7.90189ZM348.79 6.61441C350.137 6.61441 350.751 5.94083 350.751 4.82389C350.751 3.71547 350.137 3.05041 348.79 3.05041C347.443 3.05041 346.829 3.70694 346.829 4.82389C346.829 5.94936 347.443 6.61441 348.79 6.61441Z" fill="white"/>
<path d="M341.24 1.76294C343.798 1.76294 344.821 2.76052 344.821 4.68747C344.821 7.1601 343.355 7.90189 341.598 7.90189C340.115 7.90189 339.125 7.69726 338.401 7.54378V6.32452C339.245 6.48652 340.115 6.68262 341.223 6.68262C342.434 6.68262 343.099 6.43536 343.252 5.22462C342.792 5.58273 341.999 5.87262 340.873 5.87262C339.134 5.87262 338 5.29283 338 3.85189C338 2.4621 339.134 1.76294 341.24 1.76294ZM341.411 4.96883C342.724 4.96883 343.286 4.61073 343.286 3.97978C343.286 3.35736 342.766 2.9822 341.411 2.9822C339.961 2.9822 339.535 3.35736 339.535 3.97978C339.535 4.6022 339.953 4.96883 341.411 4.96883Z" fill="white"/>
<path d="M7 15C7 12.7909 8.79086 11 11 11H341C343.209 11 345 12.7909 345 15V22C345 24.2091 343.209 26 341 26H11C8.79086 26 7 24.2091 7 22V15Z" fill="#0C212E"/>
<path d="M17.4383 18C17.8326 18.0003 18.1526 18.32 18.1526 18.7143C18.1526 19.1086 17.8326 19.4283 17.4383 19.4286H16C15.6055 19.4286 15.2857 19.1088 15.2857 18.7143C15.2857 18.3198 15.6055 18 16 18H17.4383ZM33.3563 18C33.7508 18 34.0706 18.3198 34.0706 18.7143C34.0706 19.1087 33.7508 19.4285 33.3563 19.4286H31.9096C31.5151 19.4286 31.1953 19.1088 31.1953 18.7143C31.1953 18.3198 31.5151 18 31.9096 18H33.3563ZM49.2743 18C49.6688 18 49.9886 18.3198 49.9886 18.7143C49.9886 19.1088 49.6688 19.4286 49.2743 19.4286H47.8276C47.4331 19.4286 47.1133 19.1088 47.1133 18.7143C47.1133 18.3198 47.4331 18 47.8276 18H49.2743ZM65.1936 18C65.5878 18.0004 65.9079 18.32 65.9079 18.7143C65.9079 19.1085 65.5878 19.4282 65.1936 19.4286H63.7455C63.3512 19.4284 63.0312 19.1087 63.0312 18.7143C63.0312 18.3199 63.3512 18.0002 63.7455 18H65.1936ZM81.1116 18C81.506 18.0002 81.8259 18.3199 81.8259 18.7143C81.8259 19.1087 81.506 19.4284 81.1116 19.4286H79.6635C79.2693 19.4282 78.9492 19.1085 78.9492 18.7143C78.9492 18.32 79.2693 18.0004 79.6635 18H81.1116ZM97.0296 18C97.4241 18 97.7439 18.3198 97.7439 18.7143C97.7439 19.1088 97.4241 19.4286 97.0296 19.4286H95.5829C95.1884 19.4286 94.8686 19.1088 94.8686 18.7143C94.8686 18.3198 95.1884 18 95.5829 18H97.0296ZM112.948 18C113.342 18 113.662 18.3198 113.662 18.7143C113.662 19.1088 113.342 19.4286 112.948 19.4286H111.501C111.106 19.4285 110.787 19.1087 110.787 18.7143C110.787 18.3198 111.106 18 111.501 18H112.948ZM128.867 18C129.261 18.0003 129.581 18.32 129.581 18.7143C129.581 19.1086 129.261 19.4283 128.867 19.4286H127.419C127.025 19.4283 126.705 19.1086 126.705 18.7143C126.705 18.32 127.025 18.0003 127.419 18H128.867ZM144.785 18C145.179 18.0001 145.499 18.3198 145.499 18.7143C145.499 19.1087 145.179 19.4285 144.785 19.4286H143.338C142.944 19.4286 142.624 19.1088 142.624 18.7143C142.624 18.3198 142.944 18 143.338 18H144.785ZM160.703 18C161.097 18 161.417 18.3198 161.417 18.7143C161.417 19.1088 161.097 19.4286 160.703 19.4286H159.256C158.862 19.4286 158.542 19.1088 158.542 18.7143C158.542 18.3198 158.862 18 159.256 18H160.703ZM192.54 18C192.935 18.0002 193.254 18.3199 193.254 18.7143C193.254 19.1087 192.935 19.4284 192.54 19.4286H191.092C190.698 19.4282 190.378 19.1086 190.378 18.7143C190.378 18.32 190.698 18.0003 191.092 18H192.54ZM208.458 18C208.853 18 209.172 18.3198 209.172 18.7143C209.172 19.1088 208.853 19.4286 208.458 19.4286H207.011C206.617 19.4286 206.297 19.1088 206.297 18.7143C206.297 18.3198 206.617 18 207.011 18H208.458ZM224.376 18C224.771 18 225.09 18.3198 225.09 18.7143C225.09 19.1088 224.771 19.4286 224.376 19.4286H222.929C222.535 19.4285 222.215 19.1088 222.215 18.7143C222.215 18.3198 222.535 18 222.929 18H224.376ZM240.295 18C240.69 18.0003 241.01 18.32 241.01 18.7143C241.01 19.1086 240.69 19.4283 240.295 19.4286H238.847C238.453 19.4283 238.133 19.1086 238.133 18.7143C238.133 18.3199 238.453 18.0002 238.847 18H240.295ZM256.213 18C256.608 18.0001 256.928 18.3198 256.928 18.7143C256.928 19.1087 256.608 19.4285 256.213 19.4286H254.767C254.372 19.4286 254.052 19.1088 254.052 18.7143C254.052 18.3198 254.372 18 254.767 18H256.213ZM272.131 18C272.526 18 272.846 18.3198 272.846 18.7143C272.846 19.1088 272.526 19.4286 272.131 19.4286H270.685C270.29 19.4286 269.97 19.1088 269.97 18.7143C269.97 18.3198 270.29 18 270.685 18H272.131ZM288.049 18C288.444 18 288.764 18.3198 288.764 18.7143C288.764 19.1088 288.444 19.4286 288.049 19.4286H286.603C286.208 19.4285 285.888 19.1087 285.888 18.7143C285.888 18.3199 286.208 18.0001 286.603 18H288.049ZM303.969 18C304.363 18.0002 304.683 18.3199 304.683 18.7143C304.683 19.1087 304.363 19.4284 303.969 19.4286H302.521C302.126 19.4282 301.806 19.1086 301.806 18.7143C301.806 18.32 302.126 18.0003 302.521 18H303.969ZM319.887 18C320.281 18 320.601 18.3198 320.601 18.7143C320.601 19.1088 320.281 19.4286 319.887 19.4286H318.44C318.046 19.4286 317.726 19.1088 317.726 18.7143C317.726 18.3198 318.046 18 318.44 18H319.887ZM335.805 18C336.199 18 336.519 18.3198 336.519 18.7143C336.519 19.1088 336.199 19.4286 335.805 19.4286H334.358C333.963 19.4286 333.644 19.1088 333.644 18.7143C333.644 18.3198 333.963 18 334.358 18H335.805Z" fill="#2E6B8E"/>
<path d="M177 24.4091C177 24.7354 176.776 25 176.5 25C176.224 25 176 24.7354 176 24.4091L176 12.5909C176 12.2646 176.224 12 176.5 12C176.776 12 177 12.2646 177 12.5909L177 24.4091Z" fill="#D0FF00"/>
<path d="M181.719 2.50012C181.995 2.50012 182.219 2.27626 182.219 2.00012C182.219 1.72398 181.995 1.50012 181.719 1.50012C181.443 1.50012 181.219 1.72398 181.219 2.00012L180.719 2.00012C180.719 1.44784 181.166 1.00012 181.719 1.00012C182.271 1.00012 182.719 1.44784 182.719 2.00012C182.719 2.55241 182.271 3.00012 181.719 3.00012C181.166 3.00012 180.719 2.55241 180.719 2.00012L181.219 2.00012C181.219 2.27626 181.443 2.50012 181.719 2.50012Z" fill="white"/>
<path d="M176.496 8.08536C174.125 8.08536 173 6.99399 173 5.00736C173 3.02925 174.125 1.94641 176.496 1.94641C178.858 1.94641 179.992 3.03778 179.992 5.00736C179.992 6.98546 178.858 8.08536 176.496 8.08536ZM176.496 6.79789C177.843 6.79789 178.457 6.12431 178.457 5.00736C178.457 3.89894 177.843 3.23389 176.496 3.23389C175.149 3.23389 174.535 3.89041 174.535 5.00736C174.535 6.13283 175.149 6.79788 176.496 6.79789Z" fill="white"/>
</svg>
